<!-- Converted by extension-curve -->
<svg xmlns="http://www.w3.org/2000/svg" xmlns:svg="http://www.w3.org/2000/svg" xmlns:xlink="http://www.w3.org/1999/xlink" xmlns:sodipodi="http://sodipodi.sourceforge.net/DTD/sodipodi-0.dtd" xmlns:inkscape="http://www.inkscape.org/namespaces/inkscape" viewBox="0 0 512 512" width="512px" height="512px">
  <sodipodi:namedview>
    <inkscape:page x="0" y="0" width="512" height="512" inkscape:label="A4"/>
  </sodipodi:namedview>
  <g inkscape:groupmode="layer" inkscape:label="A4">
    <g inkscape:groupmode="layer" inkscape:label="Layer 1" opacity="1" style="display:inline">
      <path inkscape:label="Curve 1" style="opacity:1;mix-blend-mode:normal;display:inline;stroke:#BE4936;stroke-opacity:1;stroke-width:4.232103790565964;stroke-linecap:round;stroke-linejoin:round;stroke-dasharray:0;fill:none" d="M 195.607 135.223 C 213.183 139.617 232.283 142.679 248.775 134.434"/>
      <path inkscape:label="Curve 2" style="opacity:1;mix-blend-mode:normal;display:inline;stroke:#BE4936;stroke-opacity:1;stroke-width:4.232103790565964;stroke-linecap:round;stroke-linejoin:round;stroke-dasharray:0;fill:none" d="M 249.564 133.907 C 252.507 125.077 250.149 113.678 245.616 105.744 C 244.841 104.388 239.825 99.3153 239.825 98.9009"/>
      <path inkscape:label="Curve 3" style="opacity:1;mix-blend-mode:normal;display:inline;stroke:#BE4936;stroke-opacity:1;stroke-width:4.232103790565964;stroke-linecap:round;stroke-linejoin:round;stroke-dasharray:0;fill:none" d="M 240.089 98.9006 C 245.31 88.4585 252.079 80.4755 250.617 67.3161 C 247.195 36.5202 212.189 46.7941 212.189 74.949"/>
      <path inkscape:label="Curve 4" style="opacity:1;mix-blend-mode:normal;display:inline;stroke:#BE4936;stroke-opacity:1;stroke-width:4.232103790565964;stroke-linecap:round;stroke-linejoin:round;stroke-dasharray:0;fill:none" d="M 211.926 76.0018 C 212.775 70.9075 214.41 64.5048 212.716 59.42 C 200.802 23.6787 148.616 56.9807 180.868 73.1066"/>
      <path inkscape:label="Curve 5" style="opacity:1;mix-blend-mode:normal;display:inline;stroke:#BE4936;stroke-opacity:1;stroke-width:4.232103790565964;stroke-linecap:round;stroke-linejoin:round;stroke-dasharray:0;fill:none" d="M 179.815 73.3699 C 153.187 64.4938 130.649 137.973 178.499 126.011 C 184.865 124.419 188.863 121.338 191.659 115.746"/>
      <path inkscape:label="Curve 6" style="opacity:1;mix-blend-mode:normal;display:inline;stroke:#BE4936;stroke-opacity:1;stroke-width:4.232103790565964;stroke-linecap:round;stroke-linejoin:round;stroke-dasharray:0;fill:none" d="M 218.471 98.3816 C 221.768 106.367 221.975 119.469 213.628 127.331 C 207.536 133.069 185.783 128.167 191.66 115.735"/>
      <path inkscape:label="Curve 7" style="opacity:1;mix-blend-mode:normal;display:inline;stroke:#BE4936;stroke-opacity:1;stroke-width:4.232103790565964;stroke-linecap:round;stroke-linejoin:round;stroke-dasharray:0;fill:none" d="M 230.902 107.706 C 230.902 107.519 229.866 113.786 229.866 115.476 C 229.866 120.723 230.987 125.921 234.788 129.722"/>
      <path inkscape:label="Curve 8" style="opacity:1;mix-blend-mode:normal;display:inline;stroke:#BE4936;stroke-opacity:1;stroke-width:4.232103790565964;stroke-linecap:round;stroke-linejoin:round;stroke-dasharray:0;fill:none" d="M 223.909 131.535 C 223.909 126.23 224.049 121.002 223.391 115.735"/>
      <path inkscape:label="Curve 9" style="opacity:1;mix-blend-mode:normal;display:inline;stroke:#BE4936;stroke-opacity:1;stroke-width:4.232103790565964;stroke-linecap:round;stroke-linejoin:round;stroke-dasharray:0;fill:none" d="M 214.067 128.167 C 214.067 130.132 213.549 132.079 213.549 134.125"/>
      <path inkscape:label="Curve 10" style="opacity:1;mix-blend-mode:normal;display:inline;stroke:#BE4936;stroke-opacity:1;stroke-width:4.232103790565964;stroke-linecap:round;stroke-linejoin:round;stroke-dasharray:0;fill:none" d="M 194.123 134.643 C 194.123 134.822 194.642 129.89 194.642 128.167"/>
      <path inkscape:label="Curve 11" style="opacity:1;mix-blend-mode:normal;display:inline;stroke:#BE4936;stroke-opacity:1;stroke-width:4.232103790565964;stroke-linecap:round;stroke-linejoin:round;stroke-dasharray:0;fill:none" d="M 200.854 144.825 C 196.885 132.919 171.926 128.912 180.346 142.946 C 182.654 146.793 187.968 146.498 190.835 149.365"/>
      <path inkscape:label="Curve 12" style="opacity:1;mix-blend-mode:normal;display:inline;stroke:#BE4936;stroke-opacity:1;stroke-width:4.232103790565964;stroke-linecap:round;stroke-linejoin:round;stroke-dasharray:0;fill:none" d="M 190.209 148.582 C 186.728 146.842 182.724 144.727 178.938 143.886 C 170.779 142.073 174.5 150.231 178.625 152.809 C 181.316 154.49 184.801 154.253 187.548 155.626"/>
      <path inkscape:label="Curve 13" style="opacity:1;mix-blend-mode:normal;display:inline;stroke:#BE4936;stroke-opacity:1;stroke-width:4.232103790565964;stroke-linecap:round;stroke-linejoin:round;stroke-dasharray:0;fill:none" d="M 244.714 144.825 C 248.195 119.037 277.913 131.938 257.139 147.769"/>
      <path inkscape:label="Curve 14" style="opacity:1;mix-blend-mode:normal;display:inline;stroke:#BE4936;stroke-opacity:1;stroke-width:4.232103790565964;stroke-linecap:round;stroke-linejoin:round;stroke-dasharray:0;fill:none" d="M 258.114 147.585 C 259.724 145.221 274.401 130.484 277.19 135.279 C 280.635 141.202 267.733 148.032 263.161 148.899"/>
      <path inkscape:label="Curve 15" style="opacity:1;mix-blend-mode:normal;display:inline;stroke:#BE4936;stroke-opacity:1;stroke-width:4.232103790565964;stroke-linecap:round;stroke-linejoin:round;stroke-dasharray:0;fill:none" d="M 265.233 149.97 C 267.393 147.776 269.644 146.319 272.405 144.923 C 291.708 135.164 278.667 162.232 265.092 160.399"/>
      <path inkscape:label="Curve 16" style="opacity:1;mix-blend-mode:normal;display:inline;stroke:#BE4936;stroke-opacity:1;stroke-width:4.232103790565964;stroke-linecap:round;stroke-linejoin:round;stroke-dasharray:0;fill:none" d="M 180.367 161.784 C 174.612 156.117 161.565 153.016 158.694 163.523 C 158.378 164.678 158.812 167.77 159.61 168.955 C 162.991 173.978 168.357 176.649 174.079 177.874 C 174.694 178.006 176.958 178.829 177.054 178.118"/>
      <path inkscape:label="Curve 17" style="opacity:1;mix-blend-mode:normal;display:inline;stroke:#BE4936;stroke-opacity:1;stroke-width:4.232103790565964;stroke-linecap:round;stroke-linejoin:round;stroke-dasharray:0;fill:none" d="M 269.899 160.489 C 271.681 157.874 274.704 157.804 277.768 156.578 C 302.027 146.868 302.219 182.265 273.626 178.404"/>
      <path inkscape:label="Curve 18" style="opacity:1;mix-blend-mode:normal;display:inline;stroke:#BE4936;stroke-opacity:1;stroke-width:4.232103790565964;stroke-linecap:round;stroke-linejoin:round;stroke-dasharray:0;fill:none" d="M 178.327 179.24 C 169.588 178.061 158.556 187.828 162 196.983 C 166.245 208.271 172.986 210.498 183.571 211.927"/>
      <path inkscape:label="Curve 19" style="opacity:1;mix-blend-mode:normal;display:inline;stroke:#BE4936;stroke-opacity:1;stroke-width:4.232103790565964;stroke-linecap:round;stroke-linejoin:round;stroke-dasharray:0;fill:none" d="M 273.626 179.591 C 285.379 180.518 293.256 191.51 288.334 201.655 C 282.272 214.15 258.536 220.309 241.325 216.21"/>
      <path inkscape:label="Curve 20" style="opacity:1;mix-blend-mode:normal;display:inline;stroke:#BE4936;stroke-opacity:1;stroke-width:4.232103790565964;stroke-linecap:round;stroke-linejoin:round;stroke-dasharray:0;fill:none" d="M 201.298 145.41 C 195.132 146.373 173.567 170.186 177.589 174.565 C 182.403 179.806 206.191 160.886 202.71 155.019 C 202.344 154.401 192.68 171.701 197.41 172.786 C 204.703 174.46 216.064 152.999 213.316 150.993 C 212.342 150.282 211.874 153.027 211.766 153.43 C 210.198 159.244 207.84 184.833 216.428 168.675 C 217.377 166.891 217.901 164.779 218.413 162.836 C 219.192 159.876 219.954 156.968 219.474 153.893"/>
      <path inkscape:label="Curve 21" style="opacity:1;mix-blend-mode:normal;display:inline;stroke:#BE4936;stroke-opacity:1;stroke-width:4.232103790565964;stroke-linecap:round;stroke-linejoin:round;stroke-dasharray:0;fill:none" d="M 236.178 152.952 C 232.642 153.504 228.593 174.453 228.178 178.162 C 228.13 178.595 227.698 180.533 228.224 180.701 C 234.186 182.602 248.217 156.643 243.91 152.447 C 243.496 152.043 241.73 159.472 241.594 160.093 C 241.143 162.148 237.938 177.651 241.193 178.324 C 250.469 180.242 256.297 153.548 252.494 152.335 C 252.37 152.295 251.876 160.055 251.894 160.855 C 251.992 165.236 252.016 174.262 256.907 176.66 C 265.726 180.983 265.259 155.73 260.267 152.087"/>
      <path inkscape:label="Curve 22" style="opacity:1;mix-blend-mode:normal;display:inline;stroke:#BE4936;stroke-opacity:1;stroke-width:4.232103790565964;stroke-linecap:round;stroke-linejoin:round;stroke-dasharray:0;fill:none" d="M 230.571 163.136 C 226.785 160.714 220.915 166.445 218.849 168.82 C 213.091 175.435 201.728 192.853 207.335 201.241 C 213.602 210.616 227.965 195.535 226.727 186.235"/>
      <path inkscape:label="Curve 23" style="opacity:1;mix-blend-mode:normal;display:inline;stroke:#BE4936;stroke-opacity:1;stroke-width:4.232103790565964;stroke-linecap:round;stroke-linejoin:round;stroke-dasharray:0;fill:none" d="M 205.508 189.005 C 205.137 187.237 197.215 191.392 196.616 191.885 C 192.24 195.486 182.6 209.045 184.379 215.145 C 186.416 222.133 197.411 206.255 198.322 204.595 C 198.375 204.497 199.511 202.536 199.045 202.493 C 194.32 202.059 187.927 222.217 193.22 224.686 C 199.304 227.525 207.401 212.994 206.99 208.246 C 206.94 207.67 206.814 206.327 205.922 206.418 C 203.947 206.62 199.755 228.599 208.909 228.002 C 217.398 227.449 224.221 207.668 217.988 206.95 C 217.276 206.867 216.991 208.442 216.85 208.885 C 215.061 214.482 216.268 226.696 223 228.894 C 229.649 231.064 231.965 216.704 231.084 212.507 C 231.063 212.41 231.143 212.236 231.047 212.211 C 230.81 212.149 233.299 223.195 238.332 220.255 C 244.945 216.392 234.529 192.065 226.759 192.065"/>
      <path inkscape:label="Curve 24" style="opacity:1;mix-blend-mode:normal;display:inline;stroke:#BE4936;stroke-opacity:1;stroke-width:4.232103790565964;stroke-linecap:round;stroke-linejoin:round;stroke-dasharray:0;fill:none" d="M 186.168 154.592 C 172.976 151.099 173.338 161.164 182.87 159.997"/>
      <path inkscape:label="Curve 25" style="opacity:1;mix-blend-mode:normal;display:inline;stroke:#BE4936;stroke-opacity:1;stroke-width:4.232103790565964;stroke-linecap:round;stroke-linejoin:round;stroke-dasharray:0;fill:none" d="M 169.846 207.662 C 167.92 207.852 164.825 208.147 162.88 208.843 C 156.012 211.298 154.547 216.006 150.543 221.546 C 139.077 237.408 128.806 290.005 128.668 296.209 C 128.642 297.351 128.07 301.296 128.892 302.192"/>
      <path inkscape:label="Curve 26" style="opacity:1;mix-blend-mode:normal;display:inline;stroke:#BE4936;stroke-opacity:1;stroke-width:4.232103790565964;stroke-linecap:round;stroke-linejoin:round;stroke-dasharray:0;fill:none" d="M 129.881 302.461 C 141.356 306.849 158.189 305.873 168.667 299.274"/>
      <path inkscape:label="Curve 27" style="opacity:1;mix-blend-mode:normal;display:inline;stroke:#BE4936;stroke-opacity:1;stroke-width:4.232103790565964;stroke-linecap:round;stroke-linejoin:round;stroke-dasharray:0;fill:none" d="M 185.318 217.182 C 182.932 223.419 179.284 229.337 177.341 235.755 C 173.877 247.199 171.107 259.084 168.84 270.837 C 167.777 276.346 168.314 289.171 168.83 299.357"/>
      <path inkscape:label="Curve 28" style="opacity:1;mix-blend-mode:normal;display:inline;stroke:#BE4936;stroke-opacity:1;stroke-width:4.232103790565964;stroke-linecap:round;stroke-linejoin:round;stroke-dasharray:0;fill:none" d="M 313.673 112.736 C 314.424 116.781 313.65 121.78 313.493 125.864 C 312.929 140.528 311.645 156.103 305.82 169.716 C 303.558 175.001 300.649 180.736 296.084 184.409 C 294.966 185.309 287.595 189.823 288.637 188.307"/>
      <path inkscape:label="Curve 29" style="opacity:1;mix-blend-mode:normal;display:inline;stroke:#BE4936;stroke-opacity:1;stroke-width:4.232103790565964;stroke-linecap:round;stroke-linejoin:round;stroke-dasharray:0;fill:none" d="M 313.801 112.293 C 323.541 113.646 338.629 116.049 347.715 111.021"/>
      <path inkscape:label="Curve 30" style="opacity:1;mix-blend-mode:normal;display:inline;stroke:#BE4936;stroke-opacity:1;stroke-width:4.232103790565964;stroke-linecap:round;stroke-linejoin:round;stroke-dasharray:0;fill:none" d="M 348.135 112.724 C 347.372 115.378 348.086 119.195 348.171 121.936 C 348.402 129.398 348.817 136.687 348.108 144.156 C 344.979 177.117 331.23 222.604 294.82 232.307 C 290.778 233.385 284.521 236.926 280.382 236.351"/>
      <path inkscape:label="Curve 31" style="opacity:1;mix-blend-mode:normal;display:inline;stroke:#BE4936;stroke-opacity:1;stroke-width:4.232103790565964;stroke-linecap:round;stroke-linejoin:round;stroke-dasharray:0;fill:none" d="M 280.531 238.361 C 280.774 244.561 283.098 251.026 284.208 257.15 C 287.086 273.037 289.168 289.182 291.663 305.142 C 292.818 312.53 296.839 326.271 294.919 333.507"/>
      <path inkscape:label="Curve 32" style="opacity:1;mix-blend-mode:normal;display:inline;stroke:#BE4936;stroke-opacity:1;stroke-width:4.232103790565964;stroke-linecap:round;stroke-linejoin:round;stroke-dasharray:0;fill:none" d="M 295.081 333.524 C 294.408 335.253 289.897 336.125 288.368 336.604 C 281.393 338.79 274.238 340.194 267.115 341.855 C 239.51 348.29 212.053 347.454 184.542 341.038 C 176.555 339.176 169.578 336.295 162.45 332.444 C 160.986 331.653 155.93 329.58 155.755 327.705"/>
      <path inkscape:label="Curve 33" style="opacity:1;mix-blend-mode:normal;display:inline;stroke:#BE4936;stroke-opacity:1;stroke-width:4.232103790565964;stroke-linecap:round;stroke-linejoin:round;stroke-dasharray:0;fill:none" d="M 136.574 304.768 C 134.796 307.279 127.232 320.442 130.401 322.466 C 134.149 324.86 141.01 319.249 143.336 316.648 C 144.427 315.428 146.006 312.528 146.006 312.528 C 146.006 312.528 144.177 316.375 144.246 318.425 C 144.35 321.481 144.892 325.627 149.292 324.657 C 153.23 323.789 155.347 318.213 156.898 315.164 C 157.6 313.785 158.581 310.839 158.581 310.839 C 158.581 310.839 158.311 314.098 158.658 315.671 C 159.115 317.744 162.706 323.74 165.713 322.685 C 173.757 319.861 170.652 305.389 167.226 300.505"/>
      <path inkscape:label="Curve 34" style="opacity:1;mix-blend-mode:normal;display:inline;stroke:#BE4936;stroke-opacity:1;stroke-width:4.232103790565964;stroke-linecap:round;stroke-linejoin:round;stroke-dasharray:0;fill:none" d="M 157.431 316.083 C 156.08 319.555 155.238 323.799 154.769 327.499"/>
      <path inkscape:label="Curve 35" style="opacity:1;mix-blend-mode:normal;display:inline;stroke:#BE4936;stroke-opacity:1;stroke-width:4.232103790565964;stroke-linecap:round;stroke-linejoin:round;stroke-dasharray:0;fill:none" d="M 154.469 359.557 C 155.767 359.557 167.548 363.709 171.78 364.434 C 180.113 365.863 189.046 366.145 197.411 365.161 C 200.939 364.746 208.081 363.891 210.279 360.595"/>
      <path inkscape:label="Curve 36" style="opacity:1;mix-blend-mode:normal;display:inline;stroke:#BE4936;stroke-opacity:1;stroke-width:4.232103790565964;stroke-linecap:round;stroke-linejoin:round;stroke-dasharray:0;fill:none" d="M 213.08 346.794 C 211.098 350.758 212.073 355.834 210.694 359.972"/>
      <path inkscape:label="Curve 37" style="opacity:1;mix-blend-mode:normal;display:inline;stroke:#BE4936;stroke-opacity:1;stroke-width:4.232103790565964;stroke-linecap:round;stroke-linejoin:round;stroke-dasharray:0;fill:none" d="M 160.988 332.37 C 157.834 338.679 154.97 352.367 154.97 359.558"/>
      <path inkscape:label="Curve 38" style="opacity:1;mix-blend-mode:normal;display:inline;stroke:#BE4936;stroke-opacity:1;stroke-width:4.232103790565964;stroke-linecap:round;stroke-linejoin:round;stroke-dasharray:0;fill:none" d="M 232.485 347.936 C 232.689 348.75 231.859 349.735 231.759 350.634 C 231.408 353.795 231.277 357.623 233.731 360.077 C 238.471 364.817 245.876 365.012 252.098 365.473 C 264.002 366.355 274.924 363.373 285.927 359.247 C 290.885 357.387 295.677 356.034 299.521 352.19"/>
      <path inkscape:label="Curve 39" style="opacity:1;mix-blend-mode:normal;display:inline;stroke:#BE4936;stroke-opacity:1;stroke-width:4.232103790565964;stroke-linecap:round;stroke-linejoin:round;stroke-dasharray:0;fill:none" d="M 293.724 335.066 C 294.599 340.319 299.19 345.746 299.19 350.95"/>
      <path inkscape:label="Curve 40" style="opacity:1;mix-blend-mode:normal;display:inline;stroke:#BE4936;stroke-opacity:1;stroke-width:4.232103790565964;stroke-linecap:round;stroke-linejoin:round;stroke-dasharray:0;fill:none" d="M 156.705 361.17 C 153.498 364.998 154.818 374.352 155.55 378.585 C 156.507 384.122 157.922 391.103 160.452 396.196 C 165.082 405.516 169.988 413.706 167.472 424.278"/>
      <path inkscape:label="Curve 41" style="opacity:1;mix-blend-mode:normal;display:inline;stroke:#BE4936;stroke-opacity:1;stroke-width:4.232103790565964;stroke-linecap:round;stroke-linejoin:round;stroke-dasharray:0;fill:none" d="M 206.94 363.659 C 206.862 363.324 206.615 366.029 206.621 366.573 C 206.641 368.404 206.365 370.136 206.093 371.929 C 205.237 377.572 204.509 383.165 203.697 388.799 C 202.275 398.681 195.782 403.908 193.215 414.441 C 192.681 416.629 195.162 429.369 195.608 431.273"/>
      <path inkscape:label="Curve 42" style="opacity:1;mix-blend-mode:normal;display:inline;stroke:#BE4936;stroke-opacity:1;stroke-width:4.232103790565964;stroke-linecap:round;stroke-linejoin:round;stroke-dasharray:0;fill:none" d="M 167.41 424.013 C 175.346 425.902 185.632 431.464 194.032 428.357"/>
      <path inkscape:label="Curve 43" style="opacity:1;mix-blend-mode:normal;display:inline;stroke:#BE4936;stroke-opacity:1;stroke-width:4.232103790565964;stroke-linecap:round;stroke-linejoin:round;stroke-dasharray:0;fill:none" d="M 169.06 424.407 C 168.675 426.024 166.026 437.14 165.648 437.173"/>
      <path inkscape:label="Curve 44" style="opacity:1;mix-blend-mode:normal;display:inline;stroke:#BE4936;stroke-opacity:1;stroke-width:4.232103790565964;stroke-linecap:round;stroke-linejoin:round;stroke-dasharray:0;fill:none" d="M 166.007 437.757 C 164.1 434.659 162.708 430.264 158.596 429.64 C 149.268 428.225 134.633 446.757 140.481 454.978 C 149.975 468.325 188.339 468.175 196.308 452.818 C 199.948 445.803 199.063 437.597 196.407 430.418 C 195.954 429.194 194.614 428.467 194.313 427.178"/>
      <path inkscape:label="Curve 45" style="opacity:1;mix-blend-mode:normal;display:inline;stroke:#BE4936;stroke-opacity:1;stroke-width:4.232103790565964;stroke-linecap:round;stroke-linejoin:round;stroke-dasharray:0;fill:none" d="M 256.371 423.669 C 256.609 424.028 256.127 430.36 256.814 432.11 C 259.926 440.035 258.998 448.87 262.949 456.825 C 263.739 458.416 264.086 460.132 265.538 461.324 C 269.342 464.444 273.747 465.646 278.325 467.351 C 282.002 468.722 286.714 468.665 290.568 468.251 C 295.33 467.74 300.44 467.444 304.892 465.532 C 307.726 464.316 309.901 462.545 311.754 460.088 C 317.824 452.04 313.694 441.128 304.319 437.635 C 297.942 435.259 289.994 437.157 289.584 444.21"/>
      <path inkscape:label="Curve 46" style="opacity:1;mix-blend-mode:normal;display:inline;stroke:#BE4936;stroke-opacity:1;stroke-width:4.232103790565964;stroke-linecap:round;stroke-linejoin:round;stroke-dasharray:0;fill:none" d="M 289.229 444.177 C 289.229 437.616 287.489 432.024 286.213 425.645"/>
      <path inkscape:label="Curve 47" style="opacity:1;mix-blend-mode:normal;display:inline;stroke:#BE4936;stroke-opacity:1;stroke-width:4.232103790565964;stroke-linecap:round;stroke-linejoin:round;stroke-dasharray:0;fill:none" d="M 236.005 362.186 C 236.005 369.955 236.66 380.086 240.207 387.182 C 246.903 400.573 255.506 410.617 255.506 426.184"/>
      <path inkscape:label="Curve 48" style="opacity:1;mix-blend-mode:normal;display:inline;stroke:#BE4936;stroke-opacity:1;stroke-width:4.232103790565964;stroke-linecap:round;stroke-linejoin:round;stroke-dasharray:0;fill:none" d="M 295.909 356.045 C 298.356 368.281 299.038 379.252 294.832 391.168 C 291.403 400.884 282.666 413.389 286.213 424.029"/>
      <path inkscape:label="Curve 49" style="opacity:1;mix-blend-mode:normal;display:inline;stroke:#BE4936;stroke-opacity:1;stroke-width:4.232103790565964;stroke-linecap:round;stroke-linejoin:round;stroke-dasharray:0;fill:none" d="M 255.183 424.891 C 260.614 427.607 273.733 427.811 279.748 427.477 C 281.646 427.371 285.989 427.054 287.397 425.645"/>
      <path inkscape:label="Curve 50" style="opacity:1;mix-blend-mode:normal;display:inline;stroke:#BE4936;stroke-opacity:1;stroke-width:4.232103790565964;stroke-linecap:round;stroke-linejoin:round;stroke-dasharray:0;fill:none" d="M 263.227 215.983 C 260.106 238.72 268.984 258.751 274.359 280.332 C 276.474 288.824 278.883 297.279 281.702 305.583 C 283.408 310.609 288.866 330.745 293.683 333.121"/>
      <path inkscape:label="Curve 51" style="opacity:1;mix-blend-mode:normal;display:inline;stroke:#BE4936;stroke-opacity:1;stroke-width:4.232103790565964;stroke-linecap:round;stroke-linejoin:round;stroke-dasharray:0;fill:none" d="M 168.009 280.781 C 175.73 268.323 180.998 253.216 185.8 239.477 C 187.732 233.948 191.191 227.802 191.723 221.981"/>
      <path inkscape:label="Curve 52" style="opacity:1;mix-blend-mode:normal;display:inline;stroke:#BE4936;stroke-opacity:1;stroke-width:4.232103790565964;stroke-linecap:round;stroke-linejoin:round;stroke-dasharray:0;fill:none" d="M 273.24 274.207 C 277.147 274.207 282.979 272.007 285.288 268.543"/>
      <path inkscape:label="Curve 53" style="opacity:1;mix-blend-mode:normal;display:inline;stroke:#BE4936;stroke-opacity:1;stroke-width:4.232103790565964;stroke-linecap:round;stroke-linejoin:round;stroke-dasharray:0;fill:none" d="M 275.505 283.783 C 279.075 284.497 285.932 279.997 287.039 276.678"/>
      <path inkscape:label="Curve 54" style="opacity:1;mix-blend-mode:normal;display:inline;stroke:#BE4936;stroke-opacity:1;stroke-width:4.232103790565964;stroke-linecap:round;stroke-linejoin:round;stroke-dasharray:0;fill:none" d="M 287.039 266.998 C 288.231 265.508 289.848 264.287 291.261 262.982 C 292.22 262.097 293.499 261.331 294.659 260.717 C 295.103 260.482 299.9 257.046 300.22 258.966 C 300.594 261.209 297.249 264.319 295.998 265.762 C 295.875 265.905 293.044 269.431 292.806 268.955 C 292.731 268.806 293.691 268.361 293.733 268.337 C 295.739 267.191 299.155 265.479 301.559 266.38 C 303.665 267.17 300.695 270.087 300.014 270.705 C 297.385 273.096 292.726 276.884 288.893 276.884"/>
      <path inkscape:label="Curve 55" style="opacity:1;mix-blend-mode:normal;display:inline;stroke:#BE4936;stroke-opacity:1;stroke-width:4.232103790565964;stroke-linecap:round;stroke-linejoin:round;stroke-dasharray:0;fill:none" d="M 169.149 279.779 C 175.306 281.832 182.065 281.772 188.187 283.813"/>
      <path inkscape:label="Curve 56" style="opacity:1;mix-blend-mode:normal;display:inline;stroke:#BE4936;stroke-opacity:1;stroke-width:4.232103790565964;stroke-linecap:round;stroke-linejoin:round;stroke-dasharray:0;fill:none" d="M 248.526 288.652 C 257.243 288.652 269.069 288.787 277.082 284.78"/>
      <path inkscape:label="Curve 57" style="opacity:1;mix-blend-mode:normal;display:inline;stroke:#BE4936;stroke-opacity:1;stroke-width:4.232103790565964;stroke-linecap:round;stroke-linejoin:round;stroke-dasharray:0;fill:none" d="M 175.441 270.098 C 191.847 274.2 208.5 275.01 225.455 276.552 C 235.249 277.442 246.547 280.135 256.432 278.488 C 261.852 277.584 268.318 275.422 273.695 275.422"/>
      <path inkscape:label="Curve 58" style="opacity:1;mix-blend-mode:normal;display:inline;stroke:#BE4936;stroke-opacity:1;stroke-width:4.232103790565964;stroke-linecap:round;stroke-linejoin:round;stroke-dasharray:0;fill:none" d="M 189.326 283.325 C 187.965 291.135 188.991 303.238 194.364 309.667 C 197.063 312.898 202.026 313.709 205.842 314.773 C 216.288 317.688 230.842 319.107 240.885 313.991 C 246.465 311.149 248.488 301.914 249.085 296.29 C 249.215 295.073 249.76 290.316 248.68 289.518"/>
      <path inkscape:label="Curve 59" style="opacity:1;mix-blend-mode:normal;display:inline;stroke:#BE4936;stroke-opacity:1;stroke-width:4.232103790565964;stroke-linecap:round;stroke-linejoin:round;stroke-dasharray:0;fill:none" d="M 172.452 336.318 C 172.571 329.128 174.965 321.929 176.215 314.921 C 178.089 304.415 177.684 293.249 180.154 282.944"/>
      <path inkscape:label="Curve 60" style="opacity:1;mix-blend-mode:normal;display:inline;stroke:#BE4936;stroke-opacity:1;stroke-width:4.232103790565964;stroke-linecap:round;stroke-linejoin:round;stroke-dasharray:0;fill:none" d="M 181.817 271.603 C 183.669 268.63 186.258 248.947 185.217 244.467"/>
      <path inkscape:label="Curve 61" style="opacity:1;mix-blend-mode:normal;display:inline;stroke:#BE4936;stroke-opacity:1;stroke-width:4.232103790565964;stroke-linecap:round;stroke-linejoin:round;stroke-dasharray:0;fill:none" d="M 199.437 222.719 C 199.053 226.825 196.56 230.915 198.576 235.121 C 201.38 240.971 211.034 242.224 216.576 242.17 C 229.499 242.045 237.542 243.091 244.064 230.374 C 245.824 226.942 247.985 221.789 246.039 217.99"/>
      <path inkscape:label="Curve 62" style="opacity:1;mix-blend-mode:normal;display:inline;stroke:#BE4936;stroke-opacity:1;stroke-width:4.232103790565964;stroke-linecap:round;stroke-linejoin:round;stroke-dasharray:0;fill:none" d="M 253.612 217.755 C 258.101 237.074 256.756 256.941 261.224 276.167"/>
      <path inkscape:label="Curve 63" style="opacity:1;mix-blend-mode:normal;display:inline;stroke:#BE4936;stroke-opacity:1;stroke-width:4.232103790565964;stroke-linecap:round;stroke-linejoin:round;stroke-dasharray:0;fill:none" d="M 263.217 288.322 C 264.581 289.968 264.544 293.941 265.122 295.922 C 267.705 304.776 269.489 313.519 271.561 322.436 C 272.37 325.918 272.551 330.549 274.19 333.75 C 274.903 335.142 275.087 336.952 275.686 338.395 C 275.74 338.525 276.199 339.722 275.646 338.82"/>
      <path inkscape:label="Curve 64" style="opacity:1;mix-blend-mode:normal;display:inline;stroke:#BE4936;stroke-opacity:1;stroke-width:4.232103790565964;stroke-linecap:round;stroke-linejoin:round;stroke-dasharray:0;fill:none" d="M 247.599 224.7 C 248.948 230.506 248.01 237.633 248.529 243.619 C 249.46 254.365 250.095 266.467 252.529 276.94"/>
      <path inkscape:label="Curve 65" style="opacity:1;mix-blend-mode:normal;display:inline;stroke:#BE4936;stroke-opacity:1;stroke-width:4.232103790565964;stroke-linecap:round;stroke-linejoin:round;stroke-dasharray:0;fill:none" d="M 254.339 288.306 C 255.96 302.017 259.71 315.287 259.95 329.156 C 259.972 330.425 260.817 340.771 260.737 340.898"/>
      <path inkscape:label="Curve 66" style="opacity:1;mix-blend-mode:normal;display:inline;stroke:#BE4936;stroke-opacity:1;stroke-width:4.232103790565964;stroke-linecap:round;stroke-linejoin:round;stroke-dasharray:0;fill:none" d="M 240.875 236.939 C 240.705 247.18 241.751 257.507 242.067 267.723 C 242.15 270.416 243.033 273.798 242.414 276.379"/>
      <path inkscape:label="Curve 67" style="opacity:1;mix-blend-mode:normal;display:inline;stroke:#BE4936;stroke-opacity:1;stroke-width:4.232103790565964;stroke-linecap:round;stroke-linejoin:round;stroke-dasharray:0;fill:none" d="M 245.576 310.864 C 244.82 318.931 245.961 326.596 246.655 334.603 C 246.961 338.132 246.639 341.693 247.431 345.1"/>
      <path inkscape:label="Curve 68" style="opacity:1;mix-blend-mode:normal;display:inline;stroke:#BE4936;stroke-opacity:1;stroke-width:4.232103790565964;stroke-linecap:round;stroke-linejoin:round;stroke-dasharray:0;fill:none" d="M 232.786 242.702 C 232.219 248.758 231.928 255.143 232.511 261.208 C 232.935 265.618 233.968 271.196 232.928 275.532"/>
      <path inkscape:label="Curve 69" style="opacity:1;mix-blend-mode:normal;display:inline;stroke:#BE4936;stroke-opacity:1;stroke-width:4.232103790565964;stroke-linecap:round;stroke-linejoin:round;stroke-dasharray:0;fill:none" d="M 232.931 316.716 C 231.483 322.757 232.364 329.729 233.203 335.788 C 233.695 339.333 232.902 342.845 233.716 346.346"/>
      <path inkscape:label="Curve 70" style="opacity:1;mix-blend-mode:normal;display:inline;stroke:#BE4936;stroke-opacity:1;stroke-width:4.232103790565964;stroke-linecap:round;stroke-linejoin:round;stroke-dasharray:0;fill:none" d="M 224.213 244.001 C 224.712 251.899 223.52 260.008 223.389 267.904 C 223.367 269.214 222.258 274.396 223.036 275.335"/>
      <path inkscape:label="Curve 71" style="opacity:1;mix-blend-mode:normal;display:inline;stroke:#BE4936;stroke-opacity:1;stroke-width:4.232103790565964;stroke-linecap:round;stroke-linejoin:round;stroke-dasharray:0;fill:none" d="M 220.824 317.727 C 221.526 318.573 221.479 334.543 221.39 336.87 C 221.318 338.771 221.271 340.708 221.328 342.569 C 221.347 343.17 221.364 345.271 221.453 344.898"/>
      <path inkscape:label="Curve 72" style="opacity:1;mix-blend-mode:normal;display:inline;stroke:#BE4936;stroke-opacity:1;stroke-width:4.232103790565964;stroke-linecap:round;stroke-linejoin:round;stroke-dasharray:0;fill:none" d="M 215.445 243.265 C 214.793 250.226 215.043 257.153 215.164 264.131 C 215.223 267.549 213.906 271.847 214.685 275.197"/>
      <path inkscape:label="Curve 73" style="opacity:1;mix-blend-mode:normal;display:inline;stroke:#BE4936;stroke-opacity:1;stroke-width:4.232103790565964;stroke-linecap:round;stroke-linejoin:round;stroke-dasharray:0;fill:none" d="M 209.798 316.823 C 210.777 326.202 209.446 336.786 211.575 345.945"/>
      <path inkscape:label="Curve 74" style="opacity:1;mix-blend-mode:normal;display:inline;stroke:#BE4936;stroke-opacity:1;stroke-width:4.232103790565964;stroke-linecap:round;stroke-linejoin:round;stroke-dasharray:0;fill:none" d="M 207.396 242.64 C 205.934 248.738 207.429 254.995 207.121 261.147 C 206.947 264.634 205.979 269.954 206.755 273.296"/>
      <path inkscape:label="Curve 75" style="opacity:1;mix-blend-mode:normal;display:inline;stroke:#BE4936;stroke-opacity:1;stroke-width:4.232103790565964;stroke-linecap:round;stroke-linejoin:round;stroke-dasharray:0;fill:none" d="M 201.939 314.627 C 200.584 315.75 201.455 321.894 201.528 323.598 C 201.801 329.946 203.114 337.45 201.62 343.683"/>
      <path inkscape:label="Curve 76" style="opacity:1;mix-blend-mode:normal;display:inline;stroke:#BE4936;stroke-opacity:1;stroke-width:4.232103790565964;stroke-linecap:round;stroke-linejoin:round;stroke-dasharray:0;fill:none" d="M 198.265 236.165 C 197.403 245.361 197.573 255.126 198.156 264.34 C 198.356 267.496 196.852 271.257 197.564 274.323"/>
      <path inkscape:label="Curve 77" style="opacity:1;mix-blend-mode:normal;display:inline;stroke:#BE4936;stroke-opacity:1;stroke-width:4.232103790565964;stroke-linecap:round;stroke-linejoin:round;stroke-dasharray:0;fill:none" d="M 192.963 310.612 C 193.186 317.814 192.835 326.299 191.895 333.463 C 191.556 336.048 190.201 339.298 190.805 341.898"/>
      <path inkscape:label="Curve 78" style="opacity:1;mix-blend-mode:normal;display:inline;stroke:#BE4936;stroke-opacity:1;stroke-width:4.232103790565964;stroke-linecap:round;stroke-linejoin:round;stroke-dasharray:0;fill:none" d="M 193.037 227.396 C 192.048 237.954 192.7 249.687 190.82 260.22 C 190.195 263.724 191.176 267.806 190.341 271.286"/>
      <path inkscape:label="Curve 79" style="opacity:1;mix-blend-mode:normal;display:inline;stroke:#BE4936;stroke-opacity:1;stroke-width:4.232103790565964;stroke-linecap:round;stroke-linejoin:round;stroke-dasharray:0;fill:none" d="M 186.595 283.805 C 187.37 287.142 185.638 292.372 185.672 295.945 C 185.772 306.201 186.347 317.285 184.395 327.441 C 183.695 331.083 181.468 334.873 181.132 338.461"/>
      <path inkscape:label="Curve 80" style="opacity:1;mix-blend-mode:normal;display:inline;stroke:#BE4936;stroke-opacity:1;stroke-width:4.232103790565964;stroke-linecap:round;stroke-linejoin:round;stroke-dasharray:0;fill:none" d="M 323.278 111.049 C 324.608 102.194 324.505 93.1681 324.726 84.232"/>
      <path inkscape:label="Curve 81" style="opacity:1;mix-blend-mode:normal;display:inline;stroke:#BE4936;stroke-opacity:1;stroke-width:4.232103790565964;stroke-linecap:round;stroke-linejoin:round;stroke-dasharray:0;fill:none" d="M 338.225 112.986 C 339.052 104.869 340.481 97.1979 339.997 88.9217"/>
      <path inkscape:label="Curve 82" style="opacity:1;mix-blend-mode:normal;display:inline;stroke:#BE4936;stroke-opacity:1;stroke-width:4.232103790565964;stroke-linecap:round;stroke-linejoin:round;stroke-dasharray:0;fill:none" d="M 323.265 87.822 C 322.319 90.4402 294.67 84.232 287.038 73.7132 C 278.772 62.3196 322.143 71.2949 323.278 73.7132"/>
      <path inkscape:label="Curve 83" style="opacity:1;mix-blend-mode:normal;display:inline;stroke:#BE4936;stroke-opacity:1;stroke-width:4.232103790565964;stroke-linecap:round;stroke-linejoin:round;stroke-dasharray:0;fill:none" d="M 342.048 89.1688 C 346.548 90.1027 350.93 90.7133 355.537 90.5807 C 373.34 90.0682 404.523 70.3107 362.822 73.7132"/>
      <path inkscape:label="Curve 84" style="opacity:1;mix-blend-mode:normal;display:inline;stroke:#BE4936;stroke-opacity:1;stroke-width:4.232103790565964;stroke-linecap:round;stroke-linejoin:round;stroke-dasharray:0;fill:none" d="M 172.149 281.102 C 171.453 285.196 168.258 290.868 168.888 294.94"/>
      <path inkscape:label="Curve 85" style="opacity:1;mix-blend-mode:normal;display:inline;stroke:#BE4936;stroke-opacity:1;stroke-width:4.232103790565964;stroke-linecap:round;stroke-linejoin:round;stroke-dasharray:0;fill:none" d="M 160.244 330.711 C 161.215 327.681 161.51 324.247 162.848 321.363"/>
    </g>
  </g>
</svg>
